<?xml version="1.0" standalone="no"?>
<!DOCTYPE svg PUBLIC "-//W3C//DTD SVG 20010904//EN"
 "http://www.w3.org/TR/2001/REC-SVG-20010904/DTD/svg10.dtd">
<svg version="1.0" xmlns="http://www.w3.org/2000/svg"
 width="32.000000pt" height="32.000000pt" viewBox="0 0 32.000000 32.000000"
 preserveAspectRatio="xMidYMid meet">

<g transform="translate(0.000000,32.000000) scale(0.100000,-0.100000)"
fill="#000000" stroke="none">
<path d="M28 153 c-9 -12 -9 -15 0 -9 6 4 12 3 12 -3 0 -5 -4 -13 -10 -16 -5
-3 -10 -13 -10 -21 0 -11 6 -9 23 8 12 13 19 19 15 14 -14 -18 -8 -29 7 -16
10 9 15 9 15 1 0 -6 5 -11 11 -11 5 0 7 6 3 13 -6 9 -5 9 8 0 8 -7 18 -10 21
-7 3 3 31 6 61 6 40 1 56 5 56 14 0 8 4 14 10 14 5 0 9 -3 7 -7 -1 -5 2 -10 7
-13 5 -3 11 5 12 17 3 18 0 21 -14 16 -9 -3 -23 -10 -29 -16 -9 -6 -13 -6 -13
2 0 12 -92 7 -113 -6 -5 -3 -8 -2 -5 3 16 26 -53 42 -74 17z"/>
</g>
</svg>
